<?xml version="1.0" standalone="no"?><!DOCTYPE svg PUBLIC "-//W3C//DTD SVG 1.1//EN" "http://www.w3.org/Graphics/SVG/1.1/DTD/svg11.dtd"><svg t="1672885183671" class="icon" viewBox="0 0 1024 1024" version="1.1" xmlns="http://www.w3.org/2000/svg" p-id="2765" xmlns:xlink="http://www.w3.org/1999/xlink" width="200" height="200"><path d="M341.333333 85.333333a42.666667 42.666667 0 0 0 0 85.333334h128v42.666666c0 0.853333 0 1.664 0.085334 2.474667a362.709333 362.709333 0 0 0-299.434667 481.066667 40.32 40.32 0 0 0 75.946667-26.88 282.069333 282.069333 0 1 1 77.994666 116.224 40.277333 40.277333 0 0 0-53.717333 60.074666 362.666667 362.666667 0 1 0 284.373333-630.485333L554.666667 213.333333V170.666667h128a42.666667 42.666667 0 1 0 0-85.333334H341.333333z m218.496 598.826667l-90.282666-90.282667L469.333333 448.042667A42.666667 42.666667 0 1 1 554.666667 447.914667v110.378666l65.536 65.493334a42.666667 42.666667 0 0 1-60.373334 60.330666z" fill="#303133" p-id="2766"></path></svg>