<?xml version="1.0" standalone="no"?><!DOCTYPE svg PUBLIC "-//W3C//DTD SVG 1.1//EN" "http://www.w3.org/Graphics/SVG/1.1/DTD/svg11.dtd"><svg t="1671696209772" class="icon" viewBox="0 0 1024 1024" version="1.1" xmlns="http://www.w3.org/2000/svg" p-id="4140" xmlns:xlink="http://www.w3.org/1999/xlink" width="200" height="200"><path d="M490.3424 715.8272c-28.2624 0-51.2-22.9376-51.2-51.2v-119.6544c0-45.312 36.864-82.1248 82.1248-82.1248h305.92V286.2592h-79.0528c-28.2624 0-51.2-22.9376-51.2-51.2s22.9376-51.2 51.2-51.2h99.328c45.312 0 82.1248 36.864 82.1248 82.1248v217.088c0 45.312-36.864 82.1248-82.1248 82.1248h-305.92v99.4304c0 28.2624-22.9376 51.2-51.2 51.2z m357.12-429.568z" fill="#FFE37B" p-id="4141"></path><path d="M686.8992 393.3184H198.5024c-51.6608 0-93.4912-41.8816-93.4912-93.4912v-129.536C105.0112 118.6816 146.8928 76.8 198.5024 76.8h488.3456c51.6608 0 93.4912 41.8816 93.4912 93.4912v129.536c0.0512 51.6096-41.8304 93.4912-93.44 93.4912zM539.8528 961.792H443.5456c-32.0512 0-58.0608-26.0096-58.0608-58.0608v-181.0432c0-32.0512 26.0096-58.0608 58.0608-58.0608h96.3072c32.0512 0 58.0608 26.0096 58.0608 58.0608v181.0432c0 32.0512-26.0096 58.0608-58.0608 58.0608z" fill="#8C7BFD" p-id="4142"></path></svg>