<svg t="1645769107267" class="icon" viewBox="0 0 1024 1024" version="1.1" xmlns="http://www.w3.org/2000/svg" p-id="4713" width="200" height="200"><path d="M37.856 947.584l287.936-272.096 43.968 46.528-287.936 272.096z" p-id="4714"></path><path d="M411.84 763.2a128 128 0 1 1 128-128 128 128 0 0 1-128 128z m0-192a64 64 0 1 0 64 64 64 64 0 0 0-64-64zM731.84 538.88a256 256 0 0 1-181.12-436.8L638.08 13.76l362.88 362.24-88.32 88a256 256 0 0 1-180.8 74.88zM640 104.32L596.16 147.2a192 192 0 0 0-56.64 136 192 192 0 0 0 328 135.68l42.88-42.88z" p-id="4715"></path><path d="M23.04 1010.24l70.72-619.2 302.4-168 31.04 56-273.6 152-57.28 500.8 547.84-101.12 89.6-239.04 59.84 22.72-102.4 272.96L23.04 1010.24z" p-id="4716"></path></svg>