<svg width="31" height="31" viewBox="0 0 31 31" fill="none" xmlns="http://www.w3.org/2000/svg">
<circle cx="15.5" cy="15.5" r="15.5" fill="#003959"/>
<path d="M20.0741 6C21.0123 6.23457 24.0617 7.87654 25 10.9259M10.9259 6C9.98765 6.23457 6.93827 7.87654 6 10.9259M10.9259 25C9.98765 24.7654 6.93827 23.1235 6 20.0741M20.0741 25C21.0123 24.7654 24.0617 23.1235 25 20.0741" stroke="#006997" stroke-linecap="round" stroke-linejoin="round"/>
<circle cx="15.5" cy="15.5" r="14" stroke="#006C9B"/>
<circle cx="15.5" cy="15.5" r="8.5" fill="#005C86"/>
<path d="M11 11.375C11 11.1679 11.1679 11 11.375 11H14.75C14.9571 11 15.125 11.1679 15.125 11.375V14.75C15.125 14.9571 14.9571 15.125 14.75 15.125H11.375C11.1679 15.125 11 14.9571 11 14.75V11.375Z" fill="#00ADEF"/>
<path d="M15.875 11.375C15.875 11.1679 16.0429 11 16.25 11H19.625C19.8321 11 20 11.1679 20 11.375V14.75C20 14.9571 19.8321 15.125 19.625 15.125H16.25C16.0429 15.125 15.875 14.9571 15.875 14.75V11.375Z" fill="#00ADEF"/>
<path d="M11 16.25C11 16.0429 11.1679 15.875 11.375 15.875H14.75C14.9571 15.875 15.125 16.0429 15.125 16.25V19.625C15.125 19.8321 14.9571 20 14.75 20H11.375C11.1679 20 11 19.8321 11 19.625V16.25Z" fill="#00ADEF"/>
<path d="M15.875 16.25C15.875 16.0429 16.0429 15.875 16.25 15.875H19.625C19.8321 15.875 20 16.0429 20 16.25V19.625C20 19.8321 19.8321 20 19.625 20H16.25C16.0429 20 15.875 19.8321 15.875 19.625V16.25Z" fill="#00ADEF"/>
<path d="M22.5 3.5C32 9 31.5 22.5 22.5 27.5" stroke="#00ADEF" stroke-opacity="0.82" stroke-width="2" stroke-linecap="round"/>
<path d="M7 4.5C3 7.5 1.5 12 1.5 16" stroke="#00A7E8" stroke-opacity="0.82" stroke-width="2" stroke-linecap="round"/>
</svg>
